inDegrees=no
num_controls=7
num_derivatives=13
num_iterations=191
num_multipliers=7
num_parameters=0
num_slacks=7
num_states=26
objective=5.565230
objective_accelerations=0.225514
objective_balance=0.039426
objective_effort=0.354902
objective_height=4.921965
objective_ligament=0.023422
solver_duration=1704.573786
status=Solve_Succeeded
success=true
DataType=double
version=3
OpenSimVersion=4.4-2022-07-23-0e9fedc
endheader
time	/jointset/ground_pelvis/pelvis_tilt/value	/jointset/ground_pelvis/pelvis_tx/value	/jointset/ground_pelvis/pelvis_ty/value	/jointset/hip_r/hip_flexion_r/value	/jointset/hip_r/hip_adduction_r/value	/jointset/hip_r/hip_rotation_r/value	/jointset/back/lumbar_extension/value	/jointset/patellofemoral_r/patellar_flexion_r/value	/jointset/knee_r/knee_flexion_r/value	/jointset/knee_r/knee_adduction_r/value	/jointset/knee_r/knee_rotation_r/value	/jointset/ankle_r/ankle_angle_r/value	/jointset/subtalar_r/subtalar_angle_r/value	/jointset/ground_pelvis/pelvis_tilt/speed	/jointset/ground_pelvis/pelvis_tx/speed	/jointset/ground_pelvis/pelvis_ty/speed	/jointset/hip_r/hip_flexion_r/speed	/jointset/hip_r/hip_adduction_r/speed	/jointset/hip_r/hip_rotation_r/speed	/jointset/back/lumbar_extension/speed	/jointset/patellofemoral_r/patellar_flexion_r/speed	/jointset/knee_r/knee_flexion_r/speed	/jointset/knee_r/knee_adduction_r/speed	/jointset/knee_r/knee_rotation_r/speed	/jointset/ankle_r/ankle_angle_r/speed	/jointset/subtalar_r/subtalar_angle_r/speed	/forceset/tau_hip_flexion_r	/forceset/tau_hip_adduction_r	/forceset/tau_hip_rotation_r	/forceset/tau_knee_flexion_r	/forceset/tau_ankle_angle_r	/forceset/tau_subtalar_angle_r	/forceset/tau_lumbar_extension	lambda_cid13_p0	lambda_cid14_p0	lambda_cid14_p1	lambda_cid14_p2	lambda_cid14_p3	lambda_cid14_p4	lambda_cid14_p5	/jointset/ground_pelvis/pelvis_tilt/accel	/jointset/ground_pelvis/pelvis_tx/accel	/jointset/ground_pelvis/pelvis_ty/accel	/jointset/hip_r/hip_flexion_r/accel	/jointset/hip_r/hip_adduction_r/accel	/jointset/hip_r/hip_rotation_r/accel	/jointset/back/lumbar_extension/accel	/jointset/patellofemoral_r/patellar_flexion_r/accel	/jointset/knee_r/knee_flexion_r/accel	/jointset/knee_r/knee_adduction_r/accel	/jointset/knee_r/knee_rotation_r/accel	/jointset/ankle_r/ankle_angle_r/accel	/jointset/subtalar_r/subtalar_angle_r/accel	gamma_cid13_p0	gamma_cid14_p0	gamma_cid14_p1	gamma_cid14_p2	gamma_cid14_p3	gamma_cid14_p4	gamma_cid14_p5
0	-0.006516719374839938	0.09626122317659255	0.9427240276149856	0.1762555651711513	-0.2321527119532127	-0.2616407714565694	-0.0385979564078546	0.07317816487761826	0.07317816487761825	0.1745329251994329	0.1745329251994329	0.0324735960626065	-0.00345180886454622	0	0	0	0	0	0	0	0	0	0	0	0	0	0.2186929542176332	-0.2003108846713525	-0.04894006513548595	-0.4398763937826891	0.476539831417669	-0.129074189487411	-0.1084228601379054	-39.07640726157471	104.3926856855242	-28.21661988330746	-5.963517802941944	-66.28277400508557	-683.2420695577264	80.87662950113484	-0.1057247646745665	0.07404459336216704	-0.2595200445361167	3.757240094890743	0.1007735405651653	1.747993700805649	-4.139264184634371	6.359921087670378	6.359921087668954	-1.909115122798892	0.1077214545798186	3.326825495132022	0.8623123802470676	5.107220519684997e-08	2.491756942347558e-08	-3.620656992349654e-07	1.292062344209404e-07	2.242552758545325e-08	-2.048621572011903e-11	-2.228348333850026e-07
0.01	-0.006519023933071109	0.09626492492439527	0.9427116573300001	0.1764361355586827	-0.2321469250062405	-0.2615475717020453	-0.03880503115441539	0.07348765230723298	0.07348765230724562	0.1744375955604054	0.1745301021491991	0.032636729518353	-0.003408717666615788	-0.0004637000508744476	0.0007244403609303181	-0.002473381758269854	0.03598545125608984	0.00110779427951297	0.01855609248593636	-0.04112590168926562	0.06166242330616164	0.06166242330615286	-0.01889508987695704	-0.0005469198220099619	0.03246996066769989	0.008530410477946433	0.2134500585817178	-0.2056233340541923	-0.04740029250126581	-0.4313573326418693	0.4619153404732732	-0.119269758738594	-0.1044053737346267	-39.08666942291848	100.0359886753894	-24.76209880869183	-6.467754172397943	-63.28180733710459	-683.5389669562084	87.11323699096951	-0.01710800414480915	0.06926186264218502	-0.2411459597480134	3.499906265766312	0.1083141923384947	1.896867805888127	-4.055896017583873	6.03413334518417	6.034133345183822	-1.853950879778732	-0.1332032465730436	3.18357982682392	0.8351890378078515	6.961042606218976e-08	2.878350042459076e-08	-4.935236074113984e-07	1.358994696545618e-07	3.644569927168002e-08	-6.242835553042701e-08	-2.690393147426454e-07
0.02	-0.006526048567580043	0.09627539469684408	0.9426745734837768	0.1769727021837176	-0.2321315537523335	-0.2612713208659659	-0.03941469348917465	0.07440671004852478	0.07440671004852491	0.1741584603693575	0.1745223487468045	0.03311986227562395	-0.003282965632657989	-0.0009440152557741283	0.001353604929224908	-0.004942712247579309	0.07119924750411863	0.001916861386791287	0.03661021630789337	-0.08051751763898006	0.1219140623361262	0.1219140623361167	-0.0367599781392968	-0.0009860214832848192	0.06399986030479668	0.01653216720546888	0.208207162945613	-0.2109357834370311	-0.04586051986715241	-0.4228382715011464	0.447290849528838	-0.1094653279897832	-0.1003878873314697	-39.11715163432458	95.73721348820744	-21.31431173563014	-6.951640930919068	-60.46962049658095	-683.0002500168188	93.18400023619026	-0.1090477954796218	0.05498943483502863	-0.2587097907440378	3.602909093278529	0.04102810611822062	1.647599968009776	-3.792407036724137	6.077764232430958	6.077764232431156	-1.703074799875409	0.1292850867268464	3.138813289011403	0.7565816301622571	8.814864692752958e-08	3.264943142570595e-08	-6.249815155878314e-07	1.425927048881831e-07	5.046587095790678e-08	-1.248362248451339e-07	-3.152437961002882e-07
0.03	-0.00653764979604962	0.09629151806420044	0.9426127564928	0.177857373784893	-0.2321095635676841	-0.2608184172613309	-0.04041001998514241	0.07592138581285832	0.07592138581285279	0.173705963320208	0.1745119560316069	0.03391338463244012	-0.003079829660397967	-0.001331129612042262	0.001839582684337124	-0.007422306515282066	0.1055600013920104	0.002443121142868844	0.05388277928397442	-0.1183176623260515	0.1807581612915471	0.1807581612915428	-0.05357376465616258	-0.001095178680266999	0.09452088128219556	0.02401460555981529	0.202062100494362	-0.2023917747818846	-0.04408163693188299	-0.4130938736508046	0.4329103668346782	-0.1111990170300156	-0.09574315426051237	-39.16725769152994	91.04281503606781	-22.89875831522673	-6.688128144317743	-56.89035664438755	-682.857761956285	88.95664687222191	0.003229444119124901	0.04068921703457114	-0.2428525493088484	3.326402597613598	0.05265427250075227	1.753963305521087	-3.739300300452896	5.748275636662465	5.748275636663126	-1.645761048580821	-0.0813678800712876	2.981203337257988	0.7319293435274602	9.580849800667564e-08	3.129737357782402e-08	-6.81966622541917e-07	1.34286258893395e-07	5.925084369058893e-08	-1.801214264970027e-07	-3.279046293407776e-07
0.04	-0.006551767628118292	0.09631155866334495	0.9425260898982409	0.1790804017371697	-0.2320834649130442	-0.2601954122583169	-0.04177644435112952	0.07801661114865532	0.07801661114865507	0.1730902823117055	0.1745004013930231	0.03500660856606144	-0.002804298423503185	-0.001447335975529587	0.002137051286860479	-0.00991263296401125	0.1388705177226661	0.002738555384877052	0.07063049598460779	-0.1547370916432931	0.2380239766295607	0.2380239766295615	-0.06939677001257288	-0.001218406163672118	0.1239401756657485	0.03101122013242578	0.1959170380431947	-0.1938477661267445	-0.04230275399653259	-0.4033494758004368	0.4185298841405279	-0.1129327060702537	-0.09109842118949173	-39.23614719635641	86.40192233097765	-24.4912369788877	-6.403459112206155	-53.48726653071623	-681.9426502383787	84.57327711269812	-0.05486619692346466	0.01728760431726388	-0.260856226949324	3.392861581831324	-0.005136996695661171	1.54263071292025	-3.516263962758165	5.762107508949508	5.762107508949677	-1.504918567784287	0.1264710294422552	2.918467970242211	0.6594168738150602	1.032440528015703e-07	2.98377283309937e-08	-7.374162078213151e-07	1.256705411207015e-07	6.792787417680625e-08	-2.352597690218027e-07	-3.398738409706042e-07
0.05	-0.006566220218895617	0.09633377368400878	0.9424143410709525	0.1806318285354434	-0.2320557033199932	-0.259408715887594	-0.04349978332982599	0.08067711249161598	0.08067711249161333	0.1723216729151565	0.1744887446370828	0.03638875768728849	-0.002461295548800188	-0.00143009030743932	0.002289411361741125	-0.01244674513385036	0.1712605841042063	0.002779238023749601	0.08661662241090511	-0.1896840459317014	0.2938198621683781	0.2938198621683772	-0.08415976702190031	-0.001118180747126212	0.1523249103148437	0.03751788747356928	0.1903452723734858	-0.1909265811418042	-0.04056264522841884	-0.3954339104495035	0.4052831201138581	-0.1097772920066397	-0.08678212454302661	-39.32286307737985	82.28417836749038	-23.90296127822289	-6.427417323577633	-50.63201943427011	-681.5429532418877	84.65822388205983	0.03199421448121872	0.01174264216158623	-0.2511781055446786	3.138946066378206	0.003413276228834022	1.612817479080143	-3.44691243722494	5.449843898314889	5.449843898314586	-1.437288921452928	-0.04893926570421138	2.773785602213359	0.6354695528050524	1.02778294690053e-07	2.635813069514803e-08	-7.34461330368944e-07	1.185598458841695e-07	7.160893099611289e-08	-2.746936147089973e-07	-3.391904248756288e-07
0.06	-0.006580105499830896	0.09635701879203903	0.9422769532432569	0.1825025293775432	-0.232028586424143	-0.2584649154782895	-0.04556519210647592	0.08388787565435843	0.08388787565435378	0.1714103738177288	0.1744779426226132	0.03804981603300024	-0.002055390422977671	-0.001333874007112179	0.00234306876014656	-0.01504043304543693	0.2027253264882595	0.002609615944624796	0.10205130370103	-0.223151051233821	0.3480763405858772	0.3480763405858761	-0.09793471018906619	-0.001047457869179228	0.179722020562746	0.04359167035635485	0.1847735067037616	-0.1880053961568592	-0.03882253646031304	-0.3875183450985715	0.3920363560871899	-0.1066218779430203	-0.08246582789657739	-39.42629394109081	78.2153988110389	-23.31776331882411	-6.437576296279277	-47.94189993932461	-680.4437689654736	84.61095768022818	-0.03907207047609631	-0.002452930977771022	-0.2727713752988158	3.207796782333912	-0.04719794029514452	1.43234168568577	-3.220274165500451	5.45422608468585	5.454226084686326	-1.307307799351948	0.1205705217224653	2.720943090003633	0.5728399821434595	1.019798497193184e-07	2.279348243239645e-08	-7.290473176436562e-07	1.115125200175813e-07	7.507963102944434e-08	-3.134662184240823e-07	-3.379742665606618e-07
